<svg width="512" height="512" viewBox="0 0 100 100" xmlns="http://www.w3.org/2000/svg">
  <rect width="100" height="100" fill="#FFC107"/>
  <g fill="#1e3b6a">
    <!-- Bus main body -->
    <path d="M25 25 q0 -5 5 -5 h40 q5 0 5 5 v40 q0 5 -5 5 h-40 q-5 0 -5 -5 z" />
    <!-- Windshield -->
    <path d="M30 30 h40 v20 h-40 z" fill="#FFC107" />
    <!-- Bumper/Front detail -->
    <rect x="30" y="55" width="40" height="5" rx="1" />
    <!-- Single headlight -->
    <circle cx="35" cy="65" r="3" />
    <!-- Wheels/Base -->
    <rect x="30" y="70" width="5" height="4" rx="1" />
    <rect x="65" y="70" width="5" height="4" rx="1" />
    
    <!-- Return Arrow -->
    <path d="M75 40 a20 20 0 1 1 -25 35" fill="none" stroke="#1e3b6a" stroke-width="8" stroke-linecap="round" />
    <path d="M50 75 l10 -5 v10 z" />
  </g>
</svg>
